<svg width="100" height="100" viewBox="0 0 100 100" fill="none" xmlns="http://www.w3.org/2000/svg">
<g clip-path="url(#clip0_1719_3)">
<path d="M74.5763 0.323477C88.4387 0.323477 99.6763 11.5611 99.6763 25.4235C99.6763 39.2858 88.4387 50.5235 74.5763 50.5235H49.4763V25.4235C49.4763 11.5611 60.714 0.323477 74.5763 0.323477Z" stroke="url(#paint0_linear_1719_3)" stroke-width="0.646955"/>
<path d="M72.034 5.49724C84.4432 5.49724 94.5028 15.5569 94.5028 27.9661C94.5028 40.3753 84.4432 50.435 72.034 50.435H49.5651V27.9661C49.5651 15.5569 59.6248 5.49724 72.034 5.49724Z" stroke="url(#paint1_linear_1719_3)" stroke-width="0.82455"/>
<path d="M69.4916 10.5817C80.4967 10.5817 89.4182 19.5031 89.4182 30.5082C89.4182 41.5133 80.4967 50.4348 69.4916 50.4348H49.5651V30.5082C49.5651 19.5031 58.4865 10.5817 69.4916 10.5817Z" stroke="url(#paint2_linear_1719_3)" stroke-width="0.82455"/>
<path d="M66.9493 15.6667C76.5503 15.6667 84.3335 23.4498 84.3335 33.0508C84.3335 42.6519 76.5503 50.435 66.9493 50.435H49.5651V33.0508C49.5651 23.4498 57.3483 15.6667 66.9493 15.6667Z" stroke="url(#paint3_linear_1719_3)" stroke-width="0.82455"/>
<path d="M64.4069 20.7511C72.6038 20.7511 79.2487 27.3961 79.2487 35.593C79.2487 43.7899 72.6038 50.4348 64.4069 50.4348H49.5651V35.593C49.5651 27.3961 56.21 20.7511 64.4069 20.7511Z" stroke="url(#paint4_linear_1719_3)" stroke-width="0.82455"/>
<path d="M61.8646 25.8361C68.6574 25.8361 74.164 31.3428 74.164 38.1356C74.164 44.9284 68.6574 50.435 61.8646 50.435H49.5651V38.1356C49.5651 31.3428 55.0718 25.8361 61.8646 25.8361Z" stroke="url(#paint5_linear_1719_3)" stroke-width="0.82455"/>
<path d="M59.3222 30.9206C64.7109 30.9206 69.0794 35.289 69.0794 40.6777C69.0794 46.0664 64.7109 50.4348 59.3222 50.4348H49.5651V40.6777C49.5651 35.289 53.9335 30.9206 59.3222 30.9206Z" stroke="url(#paint6_linear_1719_3)" stroke-width="0.82455"/>
<path d="M74.5763 99.6765C88.4387 99.6765 99.6763 88.4389 99.6763 74.5765C99.6763 60.7142 88.4387 49.4765 74.5763 49.4765H49.4763V74.5765C49.4763 88.4389 60.714 99.6765 74.5763 99.6765Z" stroke="url(#paint7_linear_1719_3)" stroke-width="0.646955"/>
<path d="M72.034 94.5033C84.4432 94.5033 94.5028 84.4436 94.5028 72.0344C94.5028 59.6252 84.4432 49.5655 72.034 49.5655H49.5651V72.0344C49.5651 84.4436 59.6248 94.5033 72.034 94.5033Z" stroke="url(#paint8_linear_1719_3)" stroke-width="0.82455"/>
<path d="M69.4916 89.4183C80.4967 89.4183 89.4182 80.4969 89.4182 69.4918C89.4182 58.4867 80.4967 49.5652 69.4916 49.5652H49.5651V69.4918C49.5651 80.4969 58.4865 89.4183 69.4916 89.4183Z" stroke="url(#paint9_linear_1719_3)" stroke-width="0.82455"/>
<path d="M66.9493 84.3333C76.5503 84.3333 84.3335 76.5502 84.3335 66.9492C84.3335 57.3481 76.5503 49.565 66.9493 49.565H49.5651V66.9492C49.5651 76.5502 57.3483 84.3333 66.9493 84.3333Z" stroke="url(#paint10_linear_1719_3)" stroke-width="0.82455"/>
<path d="M64.4069 79.2489C72.6038 79.2489 79.2487 72.6039 79.2487 64.407C79.2487 56.2101 72.6038 49.5652 64.4069 49.5652H49.5651V64.407C49.5651 72.6039 56.21 79.2489 64.4069 79.2489Z" stroke="url(#paint11_linear_1719_3)" stroke-width="0.82455"/>
<path d="M61.8646 74.1639C68.6574 74.1639 74.164 68.6572 74.164 61.8644C74.164 55.0716 68.6574 49.565 61.8646 49.565H49.5651V61.8644C49.5651 68.6572 55.0718 74.1639 61.8646 74.1639Z" stroke="url(#paint12_linear_1719_3)" stroke-width="0.82455"/>
<path d="M59.3222 69.0794C64.7109 69.0794 69.0794 64.711 69.0794 59.3223C69.0794 53.9336 64.7109 49.5652 59.3222 49.5652H49.5651V59.3223C49.5651 64.711 53.9335 69.0794 59.3222 69.0794Z" stroke="url(#paint13_linear_1719_3)" stroke-width="0.82455"/>
<path d="M25.4237 0.323477C11.5613 0.323477 0.323666 11.5611 0.323666 25.4235C0.323666 39.2858 11.5613 50.5235 25.4237 50.5235H50.5237V25.4235C50.5237 11.5611 39.286 0.323477 25.4237 0.323477Z" stroke="url(#paint14_linear_1719_3)" stroke-width="0.646955"/>
<path d="M27.966 5.49724C15.5568 5.49724 5.49715 15.5569 5.49715 27.9661C5.49715 40.3753 15.5568 50.435 27.966 50.435H50.4349V27.9661C50.4349 15.5569 40.3752 5.49724 27.966 5.49724Z" stroke="url(#paint15_linear_1719_3)" stroke-width="0.82455"/>
<path d="M30.5084 10.5817C19.5033 10.5817 10.5818 19.5031 10.5818 30.5082C10.5818 41.5133 19.5033 50.4348 30.5084 50.4348H50.4349V30.5082C50.4349 19.5031 41.5135 10.5817 30.5084 10.5817Z" stroke="url(#paint16_linear_1719_3)" stroke-width="0.82455"/>
<path d="M33.0507 15.6667C23.4497 15.6667 15.6665 23.4498 15.6665 33.0508C15.6665 42.6519 23.4497 50.435 33.0507 50.435H50.4349V33.0508C50.4349 23.4498 42.6517 15.6667 33.0507 15.6667Z" stroke="url(#paint17_linear_1719_3)" stroke-width="0.82455"/>
<path d="M35.5931 20.7511C27.3962 20.7511 20.7513 27.3961 20.7513 35.593C20.7513 43.7899 27.3962 50.4348 35.5931 50.4348H50.4349V35.593C50.4349 27.3961 43.79 20.7511 35.5931 20.7511Z" stroke="url(#paint18_linear_1719_3)" stroke-width="0.82455"/>
<path d="M38.1354 25.8361C31.3426 25.8361 25.836 31.3428 25.836 38.1356C25.836 44.9284 31.3426 50.435 38.1354 50.435H50.4349V38.1356C50.4349 31.3428 44.9282 25.8361 38.1354 25.8361Z" stroke="url(#paint19_linear_1719_3)" stroke-width="0.82455"/>
<path d="M40.6778 30.9206C35.2891 30.9206 30.9206 35.289 30.9206 40.6777C30.9206 46.0664 35.2891 50.4348 40.6778 50.4348H50.4349V40.6777C50.4349 35.289 46.0665 30.9206 40.6778 30.9206Z" stroke="url(#paint20_linear_1719_3)" stroke-width="0.82455"/>
<path d="M25.4237 99.6765C11.5613 99.6765 0.323666 88.4389 0.323666 74.5765C0.323666 60.7142 11.5613 49.4765 25.4237 49.4765H50.5237V74.5765C50.5237 88.4389 39.286 99.6765 25.4237 99.6765Z" stroke="url(#paint21_linear_1719_3)" stroke-width="0.646955"/>
<path d="M27.966 94.5033C15.5568 94.5033 5.49715 84.4436 5.49715 72.0344C5.49715 59.6252 15.5568 49.5655 27.966 49.5655H50.4349V72.0344C50.4349 84.4436 40.3752 94.5033 27.966 94.5033Z" stroke="url(#paint22_linear_1719_3)" stroke-width="0.82455"/>
<path d="M30.5084 89.4183C19.5033 89.4183 10.5818 80.4969 10.5818 69.4918C10.5818 58.4867 19.5033 49.5652 30.5084 49.5652H50.4349V69.4918C50.4349 80.4969 41.5135 89.4183 30.5084 89.4183Z" stroke="url(#paint23_linear_1719_3)" stroke-width="0.82455"/>
<path d="M33.0507 84.3333C23.4497 84.3333 15.6665 76.5502 15.6665 66.9492C15.6665 57.3481 23.4497 49.565 33.0507 49.565H50.4349V66.9492C50.4349 76.5502 42.6517 84.3333 33.0507 84.3333Z" stroke="url(#paint24_linear_1719_3)" stroke-width="0.82455"/>
<path d="M35.5931 79.2489C27.3962 79.2489 20.7513 72.6039 20.7513 64.407C20.7513 56.2101 27.3962 49.5652 35.5931 49.5652H50.4349V64.407C50.4349 72.6039 43.79 79.2489 35.5931 79.2489Z" stroke="url(#paint25_linear_1719_3)" stroke-width="0.82455"/>
<path d="M38.1354 74.1639C31.3426 74.1639 25.836 68.6572 25.836 61.8644C25.836 55.0716 31.3426 49.565 38.1354 49.565H50.4349V61.8644C50.4349 68.6572 44.9282 74.1639 38.1354 74.1639Z" stroke="url(#paint26_linear_1719_3)" stroke-width="0.82455"/>
<path d="M40.6778 69.0794C35.2891 69.0794 30.9206 64.711 30.9206 59.3223C30.9206 53.9336 35.2891 49.5652 40.6778 49.5652H50.4349V59.3223C50.4349 64.711 46.0665 69.0794 40.6778 69.0794Z" stroke="url(#paint27_linear_1719_3)" stroke-width="0.82455"/>
</g>
<defs>
<linearGradient id="paint0_linear_1719_3" x1="86.4936" y1="3.17794" x2="49.1528" y2="55.6139" gradientUnits="userSpaceOnUse">
<stop stop-color="#A9A9A9"/>
<stop offset="1" stop-color="#3E3E3E"/>
</linearGradient>
<linearGradient id="paint1_linear_1719_3" x1="82.7595" y1="7.9451" x2="49.1528" y2="55.1375" gradientUnits="userSpaceOnUse">
<stop stop-color="#A9A9A9"/>
<stop offset="1" stop-color="#3E3E3E"/>
</linearGradient>
<linearGradient id="paint2_linear_1719_3" x1="79.0254" y1="12.7118" x2="49.1528" y2="54.6606" gradientUnits="userSpaceOnUse">
<stop stop-color="#A9A9A9"/>
<stop offset="1" stop-color="#3E3E3E"/>
</linearGradient>
<linearGradient id="paint3_linear_1719_3" x1="75.2914" y1="17.4789" x2="49.1528" y2="54.1841" gradientUnits="userSpaceOnUse">
<stop stop-color="#A9A9A9"/>
<stop offset="1" stop-color="#3E3E3E"/>
</linearGradient>
<linearGradient id="paint4_linear_1719_3" x1="71.5573" y1="22.2456" x2="49.1528" y2="53.7072" gradientUnits="userSpaceOnUse">
<stop stop-color="#A9A9A9"/>
<stop offset="1" stop-color="#3E3E3E"/>
</linearGradient>
<linearGradient id="paint5_linear_1719_3" x1="67.8232" y1="27.0128" x2="49.1528" y2="53.2308" gradientUnits="userSpaceOnUse">
<stop stop-color="#A9A9A9"/>
<stop offset="1" stop-color="#3E3E3E"/>
</linearGradient>
<linearGradient id="paint6_linear_1719_3" x1="64.0891" y1="31.7795" x2="49.1528" y2="52.7539" gradientUnits="userSpaceOnUse">
<stop stop-color="#A9A9A9"/>
<stop offset="1" stop-color="#3E3E3E"/>
</linearGradient>
<linearGradient id="paint7_linear_1719_3" x1="86.4936" y1="96.8221" x2="49.1528" y2="44.3861" gradientUnits="userSpaceOnUse">
<stop stop-color="#A9A9A9"/>
<stop offset="1" stop-color="#3E3E3E"/>
</linearGradient>
<linearGradient id="paint8_linear_1719_3" x1="82.7595" y1="92.0554" x2="49.1528" y2="44.863" gradientUnits="userSpaceOnUse">
<stop stop-color="#A9A9A9"/>
<stop offset="1" stop-color="#3E3E3E"/>
</linearGradient>
<linearGradient id="paint9_linear_1719_3" x1="79.0254" y1="87.2882" x2="49.1528" y2="45.3394" gradientUnits="userSpaceOnUse">
<stop stop-color="#A9A9A9"/>
<stop offset="1" stop-color="#3E3E3E"/>
</linearGradient>
<linearGradient id="paint10_linear_1719_3" x1="75.2914" y1="82.5211" x2="49.1528" y2="45.8159" gradientUnits="userSpaceOnUse">
<stop stop-color="#A9A9A9"/>
<stop offset="1" stop-color="#3E3E3E"/>
</linearGradient>
<linearGradient id="paint11_linear_1719_3" x1="71.5573" y1="77.7544" x2="49.1528" y2="46.2928" gradientUnits="userSpaceOnUse">
<stop stop-color="#A9A9A9"/>
<stop offset="1" stop-color="#3E3E3E"/>
</linearGradient>
<linearGradient id="paint12_linear_1719_3" x1="67.8232" y1="72.9872" x2="49.1528" y2="46.7692" gradientUnits="userSpaceOnUse">
<stop stop-color="#A9A9A9"/>
<stop offset="1" stop-color="#3E3E3E"/>
</linearGradient>
<linearGradient id="paint13_linear_1719_3" x1="64.0891" y1="68.2205" x2="49.1528" y2="47.2461" gradientUnits="userSpaceOnUse">
<stop stop-color="#A9A9A9"/>
<stop offset="1" stop-color="#3E3E3E"/>
</linearGradient>
<linearGradient id="paint14_linear_1719_3" x1="13.5064" y1="3.17794" x2="50.8472" y2="55.6139" gradientUnits="userSpaceOnUse">
<stop stop-color="#A9A9A9"/>
<stop offset="1" stop-color="#3E3E3E"/>
</linearGradient>
<linearGradient id="paint15_linear_1719_3" x1="17.2405" y1="7.9451" x2="50.8472" y2="55.1375" gradientUnits="userSpaceOnUse">
<stop stop-color="#A9A9A9"/>
<stop offset="1" stop-color="#3E3E3E"/>
</linearGradient>
<linearGradient id="paint16_linear_1719_3" x1="20.9746" y1="12.7118" x2="50.8472" y2="54.6606" gradientUnits="userSpaceOnUse">
<stop stop-color="#A9A9A9"/>
<stop offset="1" stop-color="#3E3E3E"/>
</linearGradient>
<linearGradient id="paint17_linear_1719_3" x1="24.7086" y1="17.4789" x2="50.8472" y2="54.1841" gradientUnits="userSpaceOnUse">
<stop stop-color="#A9A9A9"/>
<stop offset="1" stop-color="#3E3E3E"/>
</linearGradient>
<linearGradient id="paint18_linear_1719_3" x1="28.4427" y1="22.2456" x2="50.8472" y2="53.7072" gradientUnits="userSpaceOnUse">
<stop stop-color="#A9A9A9"/>
<stop offset="1" stop-color="#3E3E3E"/>
</linearGradient>
<linearGradient id="paint19_linear_1719_3" x1="32.1768" y1="27.0128" x2="50.8472" y2="53.2308" gradientUnits="userSpaceOnUse">
<stop stop-color="#A9A9A9"/>
<stop offset="1" stop-color="#3E3E3E"/>
</linearGradient>
<linearGradient id="paint20_linear_1719_3" x1="35.9109" y1="31.7795" x2="50.8472" y2="52.7539" gradientUnits="userSpaceOnUse">
<stop stop-color="#A9A9A9"/>
<stop offset="1" stop-color="#3E3E3E"/>
</linearGradient>
<linearGradient id="paint21_linear_1719_3" x1="13.5064" y1="96.8221" x2="50.8472" y2="44.3861" gradientUnits="userSpaceOnUse">
<stop stop-color="#A9A9A9"/>
<stop offset="1" stop-color="#3E3E3E"/>
</linearGradient>
<linearGradient id="paint22_linear_1719_3" x1="17.2405" y1="92.0554" x2="50.8472" y2="44.863" gradientUnits="userSpaceOnUse">
<stop stop-color="#A9A9A9"/>
<stop offset="1" stop-color="#3E3E3E"/>
</linearGradient>
<linearGradient id="paint23_linear_1719_3" x1="20.9746" y1="87.2882" x2="50.8472" y2="45.3394" gradientUnits="userSpaceOnUse">
<stop stop-color="#A9A9A9"/>
<stop offset="1" stop-color="#3E3E3E"/>
</linearGradient>
<linearGradient id="paint24_linear_1719_3" x1="24.7086" y1="82.5211" x2="50.8472" y2="45.8159" gradientUnits="userSpaceOnUse">
<stop stop-color="#A9A9A9"/>
<stop offset="1" stop-color="#3E3E3E"/>
</linearGradient>
<linearGradient id="paint25_linear_1719_3" x1="28.4427" y1="77.7544" x2="50.8472" y2="46.2928" gradientUnits="userSpaceOnUse">
<stop stop-color="#A9A9A9"/>
<stop offset="1" stop-color="#3E3E3E"/>
</linearGradient>
<linearGradient id="paint26_linear_1719_3" x1="32.1768" y1="72.9872" x2="50.8472" y2="46.7692" gradientUnits="userSpaceOnUse">
<stop stop-color="#A9A9A9"/>
<stop offset="1" stop-color="#3E3E3E"/>
</linearGradient>
<linearGradient id="paint27_linear_1719_3" x1="35.9109" y1="68.2205" x2="50.8472" y2="47.2461" gradientUnits="userSpaceOnUse">
<stop stop-color="#A9A9A9"/>
<stop offset="1" stop-color="#3E3E3E"/>
</linearGradient>
<clipPath id="clip0_1719_3">
<rect width="100" height="100" fill="white"/>
</clipPath>
</defs>
</svg>
