<svg width="100" height="100" viewBox="0 0 100 100" fill="none" xmlns="http://www.w3.org/2000/svg">
<g clip-path="url(#clip0_1719_6)">
<path fill-rule="evenodd" clip-rule="evenodd" d="M18.75 18.75H48.4375V43.75H18.75V18.75ZM20.3125 20.3125H46.875V42.1875H20.3125V20.3125Z" fill="url(#paint0_linear_1719_6)"/>
<path fill-rule="evenodd" clip-rule="evenodd" d="M15.625 15.625V53.125H57.8125V15.625H15.625ZM56.25 17.1875H17.1875V51.5625H56.25V17.1875Z" fill="url(#paint1_linear_1719_6)"/>
<path fill-rule="evenodd" clip-rule="evenodd" d="M12.5 12.5H67.1875V62.5H12.5V12.5ZM14.0625 14.0625H65.625V60.9375H14.0625V14.0625Z" fill="url(#paint2_linear_1719_6)"/>
<path fill-rule="evenodd" clip-rule="evenodd" d="M9.375 9.375V71.875H75V9.375H9.375ZM73.4375 10.9375H10.9375V70.3125H73.4375V10.9375Z" fill="url(#paint3_linear_1719_6)"/>
<path fill-rule="evenodd" clip-rule="evenodd" d="M6.25 6.25H82.8125V81.25H6.25V6.25ZM7.8125 7.8125H81.25V79.6875H7.8125V7.8125Z" fill="url(#paint4_linear_1719_6)"/>
<path fill-rule="evenodd" clip-rule="evenodd" d="M3.125 3.125V90.625H90.625V3.125H3.125ZM89.0625 4.6875H4.6875V89.0625H89.0625V4.6875Z" fill="url(#paint5_linear_1719_6)"/>
<path fill-rule="evenodd" clip-rule="evenodd" d="M0 0V100H100V0H0ZM98.4375 1.5625H1.5625V98.4375H98.4375V1.5625Z" fill="url(#paint6_linear_1719_6)"/>
</g>
<defs>
<linearGradient id="paint0_linear_1719_6" x1="13.6364" y1="23.2955" x2="88.0682" y2="147.727" gradientUnits="userSpaceOnUse">
<stop stop-color="#1E1E1E"/>
<stop offset="1" stop-color="white" stop-opacity="0"/>
</linearGradient>
<linearGradient id="paint1_linear_1719_6" x1="13.6364" y1="23.2955" x2="88.0682" y2="147.727" gradientUnits="userSpaceOnUse">
<stop stop-color="#1E1E1E"/>
<stop offset="1" stop-color="white" stop-opacity="0"/>
</linearGradient>
<linearGradient id="paint2_linear_1719_6" x1="13.6364" y1="23.2955" x2="88.0682" y2="147.727" gradientUnits="userSpaceOnUse">
<stop stop-color="#1E1E1E"/>
<stop offset="1" stop-color="white" stop-opacity="0"/>
</linearGradient>
<linearGradient id="paint3_linear_1719_6" x1="13.6364" y1="23.2955" x2="88.0682" y2="147.727" gradientUnits="userSpaceOnUse">
<stop stop-color="#1E1E1E"/>
<stop offset="1" stop-color="white" stop-opacity="0"/>
</linearGradient>
<linearGradient id="paint4_linear_1719_6" x1="13.6364" y1="23.2955" x2="88.0682" y2="147.727" gradientUnits="userSpaceOnUse">
<stop stop-color="#1E1E1E"/>
<stop offset="1" stop-color="white" stop-opacity="0"/>
</linearGradient>
<linearGradient id="paint5_linear_1719_6" x1="13.6364" y1="23.2955" x2="88.0682" y2="147.727" gradientUnits="userSpaceOnUse">
<stop stop-color="#1E1E1E"/>
<stop offset="1" stop-color="white" stop-opacity="0"/>
</linearGradient>
<linearGradient id="paint6_linear_1719_6" x1="13.6364" y1="23.2955" x2="88.0682" y2="147.727" gradientUnits="userSpaceOnUse">
<stop stop-color="#1E1E1E"/>
<stop offset="1" stop-color="white" stop-opacity="0"/>
</linearGradient>
<clipPath id="clip0_1719_6">
<rect width="100" height="100" fill="white"/>
</clipPath>
</defs>
</svg>
