<svg width="100" height="100" viewBox="0 0 100 100" fill="none" xmlns="http://www.w3.org/2000/svg">
<g clip-path="url(#clip0_1719_5)">
<path d="M40.3152 9.70806C29.1363 6.4667 13.4351 -0.376168 7.81396 10.958C1.66452 23.4149 12.5476 35.1304 19.648 44.3461C24.5295 51.3372 22.7966 57.3115 16.3302 64.1332C1.87584 79.3231 8.38453 99.661 29.6646 100C38.9416 100 47.5424 95.5935 55.7205 91.1869C71.4005 82.7128 81.079 88.9624 91.2858 81.6111C98.1326 76.7173 93.2934 64.2179 90.4617 56.6971C88.0463 50.4078 87.8895 43.4722 90.0179 37.0795C92.1311 28.9867 93.4836 15.8942 84.5658 11.8478C80.5084 10.3224 75.8382 12.0808 71.6118 10.7038C66.3711 8.94539 63.7507 2.73808 58.6156 0.683099C48.6201 -3.34212 48.3665 11.8266 40.3152 9.70806Z" stroke="url(#paint0_linear_1719_5)" stroke-width="0.8"/>
<path d="M59.3341 3.11914C64.2156 5.02582 66.7514 10.8518 71.7386 12.5254C75.6481 13.8389 80.1915 12.1229 83.953 13.6906C92.4058 17.2498 91.6239 30.0033 89.3417 37.6089C87.5114 43.7372 87.6817 50.2913 89.8277 56.3155C92.4692 63.5186 96.907 75.3824 90.3983 80.0855C80.6352 87.1614 71.3794 81.4626 56.5869 89.3647C48.8314 93.4747 40.6533 97.6482 31.9046 97.4999C11.8291 97.2033 5.63738 77.9246 18.9929 63.6033C24.9944 57.1418 26.7483 51.3794 22.057 44.8331C15.7174 35.914 5.3204 24.94 11.174 13.1822C16.457 2.35647 31.2495 8.64852 41.8367 11.5297C49.4442 13.6059 49.8035 -0.651854 59.3341 3.11914Z" stroke="url(#paint1_linear_1719_5)" stroke-width="0.8"/>
<path d="M59.9479 5.4707C64.5758 7.27145 67.0694 12.6737 71.7819 14.2626C75.48 15.5126 79.7275 13.9448 83.3411 15.449C91.4347 18.9445 90.6317 30.893 88.6664 38.1384C87.0291 43.95 87.2136 50.1255 89.1947 55.8282C91.646 62.7346 95.7034 73.9417 89.5328 78.4753C80.2981 85.2547 71.486 80.1278 57.3486 87.4368C50.0158 91.2713 42.3025 95.1058 34.1033 94.9152C15.1901 94.4491 9.27312 76.4416 21.5931 62.8617C27.1297 56.7604 28.7357 51.2945 24.3614 45.1296C18.3811 36.6555 8.89274 26.2746 14.4294 15.1948C19.501 5.08936 33.4482 10.8094 43.3803 13.4152C50.4807 15.3219 50.9878 2.08104 59.9479 5.4707Z" stroke="url(#paint2_linear_1719_5)" stroke-width="0.8"/>
<path d="M60.5597 7.99232C64.9552 9.70833 67.3854 14.6657 71.8231 16.1699C75.3099 17.3351 79.325 15.9368 82.7273 17.3774C90.3349 20.6401 89.8277 31.8259 87.9892 38.69C86.5336 44.1868 86.7172 49.9907 88.5175 55.3841C90.8209 61.9939 94.4556 72.5654 88.6443 76.9084C79.9379 83.4123 71.5273 78.8151 58.1506 85.5732C51.2193 89.09 43.971 92.6067 36.2155 92.3737C18.5702 91.8864 12.9702 75.0017 24.2125 62.2057C29.2842 56.4857 30.7212 51.3377 26.7061 45.5117C21.1906 37.4824 12.4419 27.6948 17.746 17.2927C22.5219 7.82283 35.497 13.0556 44.9219 15.3224C51.642 17.0173 52.1491 4.81451 60.5597 7.99232Z" stroke="url(#paint3_linear_1719_5)" stroke-width="0.8"/>
<path d="M61.1733 10.4284C65.3997 11.9537 67.6609 16.5721 71.8661 17.9704C75.1628 19.0932 78.9031 17.8644 82.0941 19.2203C89.2579 22.3134 88.9198 32.7365 87.3137 39.2193C86.0485 44.4194 86.2535 49.87 87.9054 54.96C90.0186 61.3156 93.273 71.1668 87.7998 75.3403C79.6005 81.5476 71.5914 77.4588 58.9967 83.8144C52.488 87.0346 45.6623 90.17 38.414 89.937C21.9944 89.2591 16.669 73.5819 26.8547 61.5698C31.4615 56.2099 32.7717 51.3797 29.0947 45.8927C24.0019 38.3083 16.1407 29.1138 21.0645 19.411C25.5657 10.5555 37.6321 15.1739 46.4231 17.2924C52.7416 18.7118 53.3333 7.58953 61.1733 10.4284Z" stroke="url(#paint4_linear_1719_5)" stroke-width="0.8"/>
<path d="M61.8072 12.8646C65.7167 14.2628 67.9567 18.4576 71.9084 19.7923C74.9937 20.8516 78.5016 19.7923 81.4812 21.0846C88.1801 24.0082 88.0322 33.6475 86.6375 39.7489C85.5443 44.662 85.763 49.7772 87.2714 54.5786C89.1945 60.5741 92.0473 69.8321 86.9122 73.8361C79.2624 79.6197 71.6125 76.1665 59.8208 81.7383C53.7136 84.6619 47.3529 87.5219 40.6117 87.2253C25.3966 86.5262 20.2615 72.0354 29.4962 60.8495C33.7227 55.8498 34.7793 51.3373 31.4615 46.2104C26.8125 39.0498 19.7543 30.4485 24.3823 21.4448C28.6087 13.1824 39.7453 17.2076 47.9868 19.0296C53.8404 20.4279 54.5167 10.2376 61.8072 12.8646Z" stroke="url(#paint5_linear_1719_5)" stroke-width="0.8"/>
<path d="M62.4193 15.3012C66.0752 16.5723 68.2729 20.3645 71.9499 21.6569C74.845 22.6314 78.0994 21.6569 80.8677 22.9703C87.0805 25.7456 87.2073 34.6223 85.9605 40.3212C85.0527 44.9326 85.2849 49.6967 86.6367 54.1976C88.3696 59.8752 90.8632 68.4977 86.045 72.311C78.9235 77.9463 71.6752 74.9592 60.6865 80.0649C55.002 82.6919 49.085 85.1917 42.851 84.874C28.8615 84.0689 23.98 70.7857 32.2849 60.4049C35.9408 55.7441 36.9551 51.5706 33.9544 46.7827C29.7279 40.0881 23.5362 32.0589 27.826 23.733C31.7778 16.1062 42.0268 19.4959 49.6767 21.1272C54.9386 22.1229 55.6993 12.9708 62.4193 15.3012Z" stroke="url(#paint6_linear_1719_5)" stroke-width="0.8"/>
<path d="M63.0326 17.737C66.456 18.8809 68.5692 22.2706 71.9926 23.4358C74.6764 24.3468 77.6771 23.5841 80.2552 24.7705C86.0032 27.3974 86.2356 35.4902 85.2847 40.8078C84.5715 45.0879 84.817 49.473 86.0032 53.6461C87.5458 59.0484 89.6168 66.9929 85.179 70.5944C78.5858 75.9331 71.739 73.4968 61.4477 78.0516C56.1646 80.382 50.7125 82.5641 44.9857 82.1828C32.3065 81.3142 27.594 69.1961 34.7578 59.6204C37.9699 55.3833 38.8152 51.4428 36.1737 47.0151C32.4333 40.7654 27.0023 33.3293 30.9963 25.7026C34.6733 18.6903 43.9925 21.4655 51.0718 22.8638C56.0378 23.8383 56.8197 15.682 63.0326 17.737Z" stroke="url(#paint7_linear_1719_5)" stroke-width="0.8"/>
<path d="M63.6662 20.1741C66.836 21.191 68.8647 24.1782 72.1191 25.2586C74.6127 26.106 77.3598 25.4916 79.7266 26.6145C85.0097 29.072 85.4112 36.4021 84.6927 41.4442C84.1549 45.4101 84.4135 49.4438 85.4534 53.308C86.8059 58.3925 88.4965 65.7015 84.3968 69.1547C78.3319 74.218 71.8655 72.3113 62.356 76.2941C57.4745 78.4127 52.4662 80.1922 47.2466 79.7685C35.6873 78.8152 31.3341 67.8835 37.4835 59.0916C40.2096 55.1723 40.9281 51.6132 38.6247 47.5456C35.3492 41.7196 30.7001 34.8344 34.3982 27.9491C37.7794 21.5935 46.2111 23.8604 52.6775 24.8985C57.1364 25.534 58.0451 18.3945 63.6662 20.1741Z" stroke="url(#paint8_linear_1719_5)" stroke-width="0.8"/>
<path d="M64.2791 22.6101C67.2165 23.4999 69.1606 26.0845 72.0769 27.059C74.3591 27.8429 76.8527 27.4191 79.0082 28.4572C83.8263 30.7664 84.418 37.3127 83.932 41.8887C83.5725 45.5367 83.8369 49.2193 84.7139 52.778C85.8973 57.5659 87.2075 64.2393 83.446 67.6078C77.9516 72.2897 71.8233 70.9339 63.1591 74.3447C58.871 76.3467 54.1718 77.3049 49.4444 77.1412C39.0896 76.0819 35.0111 66.3578 40.104 58.371C41.2791 56.8907 41.9907 55.0946 42.1485 53.2094C42.3066 51.3243 41.9038 49.4343 40.9915 47.7783C38.1598 42.3972 34.3349 36.1687 37.6949 29.8978C40.8225 24.1354 48.261 25.8726 54.2202 26.6353C58.2142 27.2497 59.2286 21.1059 64.2791 22.6101Z" stroke="url(#paint9_linear_1719_5)" stroke-width="0.8"/>
<path d="M64.8927 25.0466C67.5976 25.7881 69.4784 27.9702 72.1199 28.8812C74.2331 29.6015 76.3463 29.3261 78.4595 30.3006C82.8127 32.4191 83.5735 38.2239 83.3199 42.4186C83.1466 45.7528 83.4239 49.095 84.1441 52.3546C85.1373 56.8247 86.046 62.8413 82.6226 65.9344C77.6354 70.4257 72.0565 69.6206 63.9629 72.4807C60.0621 74.1397 55.8296 74.8651 51.6006 74.5992C42.4715 73.4552 38.6466 64.9387 42.7251 57.6509C43.6592 56.2622 44.208 54.6494 44.3157 52.9781C44.4235 51.3065 44.086 49.6365 43.338 48.1387C40.95 43.2025 37.9281 37.546 40.9923 31.9954C43.8451 26.8474 50.4383 28.0126 55.7848 28.521C59.3138 28.9448 60.4127 23.8179 64.8927 25.0466Z" stroke="url(#paint10_linear_1719_5)" stroke-width="0.8"/>
<path d="M65.5047 27.4825C67.9772 28.0969 69.7312 29.8765 72.1613 30.7027C74.0677 31.0453 75.9463 31.5266 77.7825 32.1433C81.6497 34.1347 82.6006 39.1345 82.5795 42.9479C82.582 45.956 82.8722 48.9569 83.4459 51.9093C84.2489 56.1463 84.7772 61.4639 81.6919 64.3451C77.2331 68.5821 71.9289 68.3067 64.7862 70.7007C61.2842 72.0288 57.524 72.529 53.7975 72.1625C52.111 72.0273 50.4832 71.4799 49.0566 70.5681C47.6297 69.6562 46.4478 68.4078 45.6137 66.932C44.7796 65.4562 44.3189 63.7978 44.272 62.1024C44.2253 60.4067 44.5935 58.7254 45.3447 57.2056C46.0416 55.9118 46.4326 54.4748 46.4875 53.0056C46.5425 51.5364 46.2599 50.074 45.6617 48.7315C43.7387 44.219 41.4353 39.1769 44.2881 34.3042C46.8451 29.7706 52.5296 30.3637 57.2421 30.5968C60.4119 30.6603 61.5953 26.508 65.5047 27.4825Z" stroke="url(#paint11_linear_1719_5)" stroke-width="0.8"/>
<path d="M66.1384 29.9192C68.2142 30.6551 70.2401 31.5256 72.2033 32.525C73.8977 32.8673 75.5593 33.3565 77.1694 33.9867C80.5716 35.8299 81.6916 40.0458 81.9029 43.4778C82.0509 46.0624 82.4101 48.88 82.8116 51.4858C83.4245 55.3628 83.5513 60.0659 80.8252 62.7776C76.8946 66.7181 71.992 67.0147 65.5256 68.7307C62.4297 69.7247 59.1473 69.9929 55.9316 69.5146C54.4802 69.3231 53.0895 68.8095 51.8609 68.0113C50.6325 67.213 49.5968 66.1501 48.8297 64.9C48.0626 63.6501 47.5831 62.2442 47.4261 60.785C47.2691 59.3257 47.4388 57.8497 47.9225 56.4644C48.842 54.0641 48.842 51.4077 47.9225 49.0072C46.4644 44.9396 45.0485 40.533 47.4999 36.296C49.9512 32.0589 54.5369 32.3131 58.6788 32.3978C61.5105 32.4402 62.7784 29.1989 66.1384 29.9192Z" stroke="url(#paint12_linear_1719_5)" stroke-width="0.8"/>
<path d="M66.7519 32.3552C68.6369 32.8603 70.475 33.5266 72.2462 34.3467C73.7008 34.6992 75.1164 35.196 76.4727 35.8296C77.8086 36.7639 78.9206 37.984 79.7283 39.4021C80.5359 40.8201 81.0192 42.4003 81.1429 44.0284C81.4598 46.2528 81.8191 48.7103 82.0938 51.0407C82.4953 54.621 82.2417 58.6674 79.9806 61.2097C76.5361 64.79 72.0349 65.701 66.3504 66.9086C63.6453 67.5572 60.8298 67.5933 58.1089 67.0145C55.6206 66.5315 53.4232 65.083 51.9947 62.9844C50.566 60.8858 50.0218 58.3064 50.4802 55.8074C50.9149 53.7022 50.8426 51.5233 50.2688 49.4518C49.2756 45.8079 48.6417 41.9734 50.776 38.4778C52.9104 34.9822 56.8198 34.6221 60.2855 34.2831C62.5889 34.0712 63.9836 31.8892 66.7519 32.3552Z" stroke="url(#paint13_linear_1719_5)" stroke-width="0.8"/>
<path d="M67.386 34.7919C69.0745 35.0489 70.7272 35.504 72.3098 36.1478C73.5344 36.5355 74.7167 37.0465 75.8389 37.6731C78.193 39.3004 79.8464 41.76 80.4668 44.5584C80.9754 46.5375 81.3078 48.5582 81.46 50.5962C81.8383 53.8191 80.9518 57.063 78.9875 59.6423C75.8594 62.8973 71.5953 64.8107 67.0902 64.981C64.7885 65.3139 62.4417 65.1255 60.2222 64.4302C58.2284 63.8135 56.4747 62.5918 55.2029 60.9336C53.9312 59.2754 53.204 57.2624 53.1218 55.1722C53.0783 53.3698 52.9158 51.5722 52.6358 49.7911C51.9146 46.632 52.4367 43.3158 54.0939 40.5331C55.0108 39.3294 56.1613 38.3242 57.4759 37.5778C58.7905 36.8314 60.2423 36.3594 61.7437 36.1902C63.6879 35.8088 65.2728 34.5801 67.386 34.7919Z" stroke="url(#paint14_linear_1719_5)" stroke-width="0.8"/>
<path d="M67.9991 63.1163C75.1302 63.1163 80.9109 57.3211 80.9109 50.1721C80.9109 43.0231 75.1302 37.2278 67.9991 37.2278C60.8681 37.2278 55.0874 43.0231 55.0874 50.1721C55.0874 57.3211 60.8681 63.1163 67.9991 63.1163Z" stroke="url(#paint15_linear_1719_5)" stroke-width="0.8"/>
</g>
<defs>
<linearGradient id="paint0_linear_1719_5" x1="74.0515" y1="38.8456" x2="55.024" y2="65.4978" gradientUnits="userSpaceOnUse">
<stop stop-color="#A9A9A9"/>
<stop offset="1" stop-color="#3E3E3E"/>
</linearGradient>
<linearGradient id="paint1_linear_1719_5" x1="74.0515" y1="38.8456" x2="55.024" y2="65.4978" gradientUnits="userSpaceOnUse">
<stop stop-color="#A9A9A9"/>
<stop offset="1" stop-color="#3E3E3E"/>
</linearGradient>
<linearGradient id="paint2_linear_1719_5" x1="74.0515" y1="38.8456" x2="55.024" y2="65.4978" gradientUnits="userSpaceOnUse">
<stop stop-color="#A9A9A9"/>
<stop offset="1" stop-color="#3E3E3E"/>
</linearGradient>
<linearGradient id="paint3_linear_1719_5" x1="74.0515" y1="38.8456" x2="55.024" y2="65.4978" gradientUnits="userSpaceOnUse">
<stop stop-color="#A9A9A9"/>
<stop offset="1" stop-color="#3E3E3E"/>
</linearGradient>
<linearGradient id="paint4_linear_1719_5" x1="74.0515" y1="38.8456" x2="55.024" y2="65.4978" gradientUnits="userSpaceOnUse">
<stop stop-color="#A9A9A9"/>
<stop offset="1" stop-color="#3E3E3E"/>
</linearGradient>
<linearGradient id="paint5_linear_1719_5" x1="74.0515" y1="38.8456" x2="55.024" y2="65.4978" gradientUnits="userSpaceOnUse">
<stop stop-color="#A9A9A9"/>
<stop offset="1" stop-color="#3E3E3E"/>
</linearGradient>
<linearGradient id="paint6_linear_1719_5" x1="74.0515" y1="38.8456" x2="55.024" y2="65.4978" gradientUnits="userSpaceOnUse">
<stop stop-color="#A9A9A9"/>
<stop offset="1" stop-color="#3E3E3E"/>
</linearGradient>
<linearGradient id="paint7_linear_1719_5" x1="74.0515" y1="38.8456" x2="55.024" y2="65.4978" gradientUnits="userSpaceOnUse">
<stop stop-color="#A9A9A9"/>
<stop offset="1" stop-color="#3E3E3E"/>
</linearGradient>
<linearGradient id="paint8_linear_1719_5" x1="74.0515" y1="38.8456" x2="55.024" y2="65.4978" gradientUnits="userSpaceOnUse">
<stop stop-color="#A9A9A9"/>
<stop offset="1" stop-color="#3E3E3E"/>
</linearGradient>
<linearGradient id="paint9_linear_1719_5" x1="74.0515" y1="38.8456" x2="55.024" y2="65.4978" gradientUnits="userSpaceOnUse">
<stop stop-color="#A9A9A9"/>
<stop offset="1" stop-color="#3E3E3E"/>
</linearGradient>
<linearGradient id="paint10_linear_1719_5" x1="74.0515" y1="38.8456" x2="55.024" y2="65.4978" gradientUnits="userSpaceOnUse">
<stop stop-color="#A9A9A9"/>
<stop offset="1" stop-color="#3E3E3E"/>
</linearGradient>
<linearGradient id="paint11_linear_1719_5" x1="74.0515" y1="38.8456" x2="55.024" y2="65.4978" gradientUnits="userSpaceOnUse">
<stop stop-color="#A9A9A9"/>
<stop offset="1" stop-color="#3E3E3E"/>
</linearGradient>
<linearGradient id="paint12_linear_1719_5" x1="74.0515" y1="38.8456" x2="55.024" y2="65.4978" gradientUnits="userSpaceOnUse">
<stop stop-color="#A9A9A9"/>
<stop offset="1" stop-color="#3E3E3E"/>
</linearGradient>
<linearGradient id="paint13_linear_1719_5" x1="74.0515" y1="38.8456" x2="55.024" y2="65.4978" gradientUnits="userSpaceOnUse">
<stop stop-color="#A9A9A9"/>
<stop offset="1" stop-color="#3E3E3E"/>
</linearGradient>
<linearGradient id="paint14_linear_1719_5" x1="74.0515" y1="38.8456" x2="55.024" y2="65.4978" gradientUnits="userSpaceOnUse">
<stop stop-color="#A9A9A9"/>
<stop offset="1" stop-color="#3E3E3E"/>
</linearGradient>
<linearGradient id="paint15_linear_1719_5" x1="74.0515" y1="38.8456" x2="55.024" y2="65.4978" gradientUnits="userSpaceOnUse">
<stop stop-color="#A9A9A9"/>
<stop offset="1" stop-color="#3E3E3E"/>
</linearGradient>
<clipPath id="clip0_1719_5">
<rect width="100" height="100" fill="white"/>
</clipPath>
</defs>
</svg>
