<svg width="97" height="70" viewBox="0 0 97 70" fill="none" xmlns="http://www.w3.org/2000/svg">
<path d="M96.2278 0L76.8254 41.0615L74.2776 26.3967C78.5893 26.3967 82.3783 27.3743 85.6447 29.3296C89.0417 31.2849 91.7201 33.9572 93.68 37.3464C95.6398 40.6052 96.6197 44.2551 96.6197 48.2961C96.6197 52.3371 95.6398 55.987 93.68 59.2458C91.7201 62.5047 89.0417 65.1117 85.6447 67.067C82.2476 69.0224 78.4586 70 74.2776 70C70.2273 70 66.5036 69.0224 63.1066 67.067C59.7095 65.1117 57.0311 62.4395 55.0713 59.0503C53.1115 55.6611 52.1315 51.8808 52.1315 47.7095C52.1315 43.7989 53.0461 39.6927 54.8753 35.3911C56.8351 30.959 60.1015 25.3538 64.6745 18.5754L77.0214 0H96.2278ZM44.0962 0L24.6939 41.0615L22.1461 26.3967C26.4577 26.3967 30.2467 27.3743 33.5131 29.3296C36.9102 31.2849 39.5886 33.9572 41.5484 37.3464C43.5083 40.6052 44.4882 44.2551 44.4882 48.2961C44.4882 52.3371 43.5083 55.987 41.5484 59.2458C39.5886 62.5047 36.9102 65.1117 33.5131 67.067C30.1161 69.0224 26.3271 70 22.1461 70C18.0958 70 14.3721 69.0224 10.9751 67.067C7.57802 65.1117 4.89958 62.4395 2.93975 59.0503C0.979916 55.6611 0 51.8808 0 47.7095C0 43.7989 0.914588 39.6927 2.74377 35.3911C4.7036 30.959 7.96998 25.3538 12.5429 18.5754L24.8899 0H44.0962Z" fill="#192A37"/>
</svg>
