<svg width="100" height="100" viewBox="0 0 100 100" fill="none" xmlns="http://www.w3.org/2000/svg">
<g clip-path="url(#clip0_1719_4)">
<path fill-rule="evenodd" clip-rule="evenodd" d="M100 50C100 22.3858 77.6142 0 50 0C22.3858 0 0 22.3858 0 50C0 77.6142 22.3858 100 50 100C77.6142 100 100 77.6142 100 50ZM43.75 50C43.75 71.9426 45.5168 90.584 47.9745 97.3157C47.5104 96.8345 47.0088 96.1712 46.4795 95.2757C45.0937 92.9311 43.7915 89.4343 42.677 84.9764C40.4541 76.0846 39.0625 63.7178 39.0625 50C39.0625 36.2822 40.4541 23.9154 42.677 15.0236C43.7915 10.5657 45.0937 7.06894 46.4795 4.72429C47.0088 3.82883 47.5104 3.16551 47.9744 2.68428C45.5168 9.41602 43.75 28.0574 43.75 50ZM53.5205 95.2757C52.9912 96.1712 52.4896 96.8345 52.0255 97.3157C54.4832 90.584 56.25 71.9426 56.25 50C56.25 28.0574 54.4832 9.41602 52.0255 2.68427C52.4896 3.1655 52.9912 3.82883 53.5205 4.72429C54.9063 7.06894 56.2085 10.5657 57.323 15.0236C59.5459 23.9154 60.9375 36.2822 60.9375 50C60.9375 63.7178 59.5459 76.0846 57.323 84.9764C56.2085 89.4343 54.9063 92.9311 53.5205 95.2757ZM45.4354 96.5614C44.9148 96.1308 44.3927 95.6228 43.8708 95.0342C41.7995 92.698 39.8629 89.2283 38.2048 84.8067C34.8929 75.975 32.8125 63.6694 32.8125 50C32.8125 36.3306 34.8929 24.025 38.2048 15.1933C39.8629 10.7717 41.7995 7.30202 43.8708 4.96582C44.3927 4.37716 44.9148 3.86917 45.4354 3.43856C40.7894 10.7316 37.5 28.8293 37.5 50C37.5 71.1707 40.7894 89.2684 45.4354 96.5614ZM54.5646 96.5614C55.0852 96.1308 55.6073 95.6228 56.1292 95.0342C58.2005 92.698 60.1371 89.2283 61.7952 84.8067C65.1071 75.975 67.1875 63.6694 67.1875 50C67.1875 36.3306 65.1071 24.025 61.7952 15.1933C60.1371 10.7717 58.2005 7.30202 56.1292 4.96582C55.6073 4.37715 55.0852 3.86917 54.5646 3.43855C59.2106 10.7316 62.5 28.8293 62.5 50C62.5 71.1707 59.2106 89.2684 54.5646 96.5614ZM33.7199 84.6566C36.2577 89.7322 39.2544 93.5071 42.4751 95.8104C35.8662 88.0797 31.25 70.4774 31.25 50C31.25 29.5226 35.8662 11.9203 42.475 4.18957C39.2544 6.49288 36.2577 10.2678 33.7199 15.3434C29.3255 24.1321 26.5625 36.3829 26.5625 50C26.5625 63.6171 29.3255 75.8679 33.7199 84.6566ZM66.2801 84.6566C63.7423 89.7322 60.7456 93.5071 57.525 95.8104C64.1338 88.0797 68.75 70.4774 68.75 50C68.75 29.5226 64.1338 11.9203 57.525 4.18957C60.7456 6.49288 63.7423 10.2678 66.2801 15.3434C70.6745 24.1321 73.4375 36.3829 73.4375 50C73.4375 63.6171 70.6745 75.8679 66.2801 84.6566ZM39.1747 95.0822C35.4743 92.6993 32.0931 89.1116 29.2279 84.5272C23.7511 75.7643 20.3125 63.5611 20.3125 50C20.3125 36.4389 23.7511 24.2357 29.2279 15.4728C32.0931 10.8884 35.4742 7.3007 39.1747 4.9178C30.7883 12.9875 25 30.1418 25 50C25 69.8582 30.7884 87.0125 39.1747 95.0822ZM60.8253 95.0822C64.5257 92.6993 67.9069 89.1116 70.7721 84.5272C76.2489 75.7643 79.6875 63.5611 79.6875 50C79.6875 36.4389 76.2489 24.2357 70.7721 15.4728C67.9069 10.8884 64.5257 7.30069 60.8253 4.91779C69.2116 12.9875 75 30.1418 75 50C75 69.8582 69.2116 87.0125 60.8253 95.0822ZM24.7335 84.4178C27.8617 88.5888 31.5316 91.9684 35.572 94.3635C25.5752 86.0235 18.75 69.287 18.75 50C18.75 30.7129 25.5752 13.9765 35.572 5.63646C31.5316 8.03162 27.8617 11.4112 24.7335 15.5822C18.169 24.3349 14.0625 36.4983 14.0625 50C14.0625 63.5017 18.169 75.6651 24.7335 84.4178ZM75.2665 84.4178C72.1383 88.5888 68.4684 91.9684 64.4279 94.3636C74.4247 86.0235 81.25 69.287 81.25 50C81.25 30.7129 74.4247 13.9765 64.4279 5.63645C68.4684 8.03161 72.1383 11.4112 75.2665 15.5822C81.831 24.3349 85.9375 36.4983 85.9375 50C85.9375 63.5017 81.831 75.6651 75.2665 84.4178ZM31.6587 93.6216C17.6057 85.8155 7.8125 69.3118 7.8125 50C7.8125 30.6882 17.6057 14.1845 31.6587 6.37846C20.2249 14.9435 12.5 31.2689 12.5 50C12.5 68.7311 20.2249 85.0565 31.6587 93.6216ZM68.3413 93.6216C82.3943 85.8155 92.1875 69.3118 92.1875 50C92.1875 30.6882 82.3943 14.1845 68.3413 6.37845C79.7751 14.9435 87.5 31.2689 87.5 50C87.5 68.7311 79.7751 85.0565 68.3413 93.6216ZM1.5625 50C1.5625 68.6692 12.1244 84.8715 27.599 92.9575C14.8127 84.23 6.25 68.2578 6.25 50C6.25 31.7422 14.8127 15.77 27.599 7.04251C12.1244 15.1285 1.5625 31.3308 1.5625 50ZM98.4375 50C98.4375 68.6692 87.8755 84.8715 72.401 92.9575C85.1873 84.23 93.75 68.2578 93.75 50C93.75 31.7422 85.1873 15.77 72.401 7.0425C87.8755 15.1285 98.4375 31.3308 98.4375 50ZM52.869 85.1615C53.9897 76.1955 54.6875 63.7633 54.6875 50C54.6875 36.2367 53.9897 23.8045 52.869 14.8385C52.3072 10.3445 51.6464 6.7813 50.9343 4.37208C50.883 4.19841 50.832 4.0326 50.7812 3.8745V96.1255C50.832 95.9674 50.883 95.8016 50.9343 95.6279C51.6464 93.2187 52.3072 89.6555 52.869 85.1615ZM49.2188 3.8745V96.1255C49.168 95.9674 49.117 95.8016 49.0657 95.6279C48.3536 93.2187 47.6928 89.6555 47.131 85.1615C46.0103 76.1955 45.3125 63.7633 45.3125 50C45.3125 36.2367 46.0103 23.8045 47.131 14.8385C47.6928 10.3445 48.3536 6.7813 49.0657 4.37208C49.117 4.19841 49.168 4.0326 49.2188 3.8745Z" fill="url(#paint0_linear_1719_4)"/>
</g>
<defs>
<linearGradient id="paint0_linear_1719_4" x1="28.9062" y1="4.6875" x2="74.2188" y2="96.0938" gradientUnits="userSpaceOnUse">
<stop stop-color="#D3D3D3"/>
<stop offset="1" stop-color="#1E1E1E"/>
</linearGradient>
<clipPath id="clip0_1719_4">
<rect width="100" height="100" fill="white"/>
</clipPath>
</defs>
</svg>
