<svg width="14" height="14" viewBox="0 0 14 14" fill="none" xmlns="http://www.w3.org/2000/svg">
<path d="M2.05019 11.9498C1.43096 11.3306 1.84154 10.0295 1.52654 9.2676C1.19942 8.48077 0 7.84135 0 7C0 6.15865 1.19942 5.51923 1.52654 4.7324C1.84154 3.97115 1.43096 2.66942 2.05019 2.05019C2.66942 1.43096 3.97115 1.84154 4.7324 1.52654C5.5226 1.19942 6.15865 0 7 0C7.84135 0 8.48077 1.19942 9.2676 1.52654C10.0295 1.84154 11.3306 1.43096 11.9498 2.05019C12.569 2.66942 12.1585 3.97048 12.4735 4.7324C12.8006 5.5226 14 6.15865 14 7C14 7.84135 12.8006 8.48077 12.4735 9.2676C12.1585 10.0295 12.569 11.3306 11.9498 11.9498C11.3306 12.569 10.0295 12.1585 9.2676 12.4735C8.48077 12.8006 7.84135 14 7 14C6.15865 14 5.51923 12.8006 4.7324 12.4735C3.97115 12.1585 2.66942 12.569 2.05019 11.9498Z" fill="#1E1E1E"/>
<path d="M4 7.28571L5.8 9L10 5" stroke="white" stroke-linecap="round" stroke-linejoin="round"/>
</svg>
