<svg width="194" height="12" viewBox="0 0 194 12" fill="none" xmlns="http://www.w3.org/2000/svg">
<path d="M13.2957 5.90271C13.073 6.06601 12.7601 6.01788 12.5968 5.79519C12.4335 5.57251 12.4816 5.25961 12.7043 5.09631L13.2957 5.90271ZM23.5332 3.03271L23.1796 3.38627L23.5332 3.03271ZM17.0408 2.53622L17.3365 2.93942L17.0408 2.53622ZM35.5355 7.96398L35.8891 8.31753L35.5355 7.96398ZM28.4645 7.96398L28.1109 8.31753L28.4645 7.96398ZM47.0355 3.53505L47.3891 3.18149L47.0355 3.53505ZM39.9645 3.53505L39.6109 3.18149L39.9645 3.53505ZM58.5355 7.96398L58.8891 8.31753L58.5355 7.96398ZM51.4645 7.96398L51.1109 8.31753L51.4645 7.96398ZM70.0355 3.53505L69.682 3.8886L70.0355 3.53505ZM81.5355 7.96398L81.182 7.61042L81.5355 7.96398ZM74.4645 7.96398L74.818 7.61042L74.4645 7.96398ZM93.0355 3.53505L92.682 3.8886L93.0355 3.53505ZM85.9645 3.53505L86.318 3.8886L85.9645 3.53505ZM104.536 7.96398L104.182 7.61042L104.536 7.96398ZM97.4645 7.96398L97.818 7.61042L97.4645 7.96398ZM116.036 3.53505L115.682 3.8886L116.036 3.53505ZM108.964 3.53505L109.318 3.8886L108.964 3.53505ZM127.536 7.96398L127.182 7.61042L127.536 7.96398ZM120.464 7.96398L120.818 7.61042L120.464 7.96398ZM131.964 3.53505L132.318 3.8886L131.964 3.53505ZM150.536 7.96398L150.889 8.31753L150.536 7.96398ZM143.464 7.96398L143.818 7.61042L143.464 7.96398ZM154.964 3.53505L154.611 3.18149L154.964 3.53505ZM173.536 7.96398L173.889 8.31753L173.536 7.96398ZM177.964 3.53505L178.318 3.8886L177.964 3.53505ZM192.646 11.8531L184.682 3.8886L185.389 3.18149L193.354 11.146L192.646 11.8531ZM178.318 3.8886L173.889 8.31753L173.182 7.61042L177.611 3.18149L178.318 3.8886ZM166.111 8.31753L161.682 3.8886L162.389 3.18149L166.818 7.61042L166.111 8.31753ZM155.318 3.8886L150.889 8.31753L150.182 7.61042L154.611 3.18149L155.318 3.8886ZM143.111 8.31753L138.682 3.8886L139.389 3.18149L143.818 7.61042L143.111 8.31753ZM132.318 3.8886L127.889 8.31753L127.182 7.61042L131.611 3.18149L132.318 3.8886ZM120.111 8.31753L115.682 3.8886L116.389 3.18149L120.818 7.61042L120.111 8.31753ZM109.318 3.8886L104.889 8.31753L104.182 7.61042L108.611 3.18149L109.318 3.8886ZM97.1109 8.31753L92.682 3.8886L93.3891 3.18149L97.818 7.61042L97.1109 8.31753ZM86.318 3.8886L81.8891 8.31753L81.182 7.61042L85.6109 3.18149L86.318 3.8886ZM74.1109 8.31753L69.682 3.8886L70.3891 3.18149L74.818 7.61042L74.1109 8.31753ZM63.318 3.8886L58.8891 8.31753L58.182 7.61042L62.6109 3.18149L63.318 3.8886ZM51.1109 8.31753L46.682 3.8886L47.3891 3.18149L51.818 7.61042L51.1109 8.31753ZM40.318 3.8886L35.8891 8.31753L35.182 7.61042L39.6109 3.18149L40.318 3.8886ZM28.1109 8.31753L23.1796 3.38627L23.8867 2.67916L28.818 7.61042L28.1109 8.31753ZM17.3365 2.93942L13.2957 5.90271L12.7043 5.09631L16.7452 2.13302L17.3365 2.93942ZM23.1796 3.38627C21.6091 1.81573 19.1276 1.62596 17.3365 2.93942L16.7452 2.13302C18.9343 0.527679 21.9672 0.759619 23.8867 2.67916L23.1796 3.38627ZM35.8891 8.31753C33.7412 10.4654 30.2588 10.4654 28.1109 8.31753L28.818 7.61042C30.5754 9.36778 33.4246 9.36778 35.182 7.61042L35.8891 8.31753ZM46.682 3.8886C44.9246 2.13124 42.0754 2.13124 40.318 3.8886L39.6109 3.18149C41.7588 1.03361 45.2412 1.03361 47.3891 3.18149L46.682 3.8886ZM58.8891 8.31753C56.7412 10.4654 53.2588 10.4654 51.1109 8.31753L51.818 7.61042C53.5754 9.36778 56.4246 9.36778 58.182 7.61042L58.8891 8.31753ZM69.682 3.8886C67.9246 2.13124 65.0754 2.13124 63.318 3.8886L62.6109 3.18149C64.7588 1.03361 68.2412 1.03361 70.3891 3.18149L69.682 3.8886ZM81.8891 8.31753C79.7412 10.4654 76.2588 10.4654 74.1109 8.31753L74.818 7.61042C76.5754 9.36778 79.4246 9.36778 81.182 7.61042L81.8891 8.31753ZM92.682 3.8886C90.9246 2.13124 88.0754 2.13124 86.318 3.8886L85.6109 3.18149C87.7588 1.03361 91.2412 1.03361 93.3891 3.18149L92.682 3.8886ZM104.889 8.31753C102.741 10.4654 99.2588 10.4654 97.1109 8.31753L97.818 7.61042C99.5754 9.36778 102.425 9.36778 104.182 7.61042L104.889 8.31753ZM115.682 3.8886C113.925 2.13124 111.075 2.13124 109.318 3.8886L108.611 3.18149C110.759 1.03361 114.241 1.03361 116.389 3.18149L115.682 3.8886ZM127.889 8.31753C125.741 10.4654 122.259 10.4654 120.111 8.31753L120.818 7.61042C122.575 9.36778 125.425 9.36778 127.182 7.61042L127.889 8.31753ZM138.682 3.8886C136.925 2.13124 134.075 2.13124 132.318 3.8886L131.611 3.18149C133.759 1.03361 137.241 1.03361 139.389 3.18149L138.682 3.8886ZM150.889 8.31753C148.741 10.4654 145.259 10.4654 143.111 8.31753L143.818 7.61042C145.575 9.36778 148.425 9.36778 150.182 7.61042L150.889 8.31753ZM161.682 3.8886C159.925 2.13124 157.075 2.13124 155.318 3.8886L154.611 3.18149C156.759 1.03361 160.241 1.03361 162.389 3.18149L161.682 3.8886ZM173.889 8.31753C171.741 10.4654 168.259 10.4654 166.111 8.31753L166.818 7.61042C168.575 9.36778 171.425 9.36778 173.182 7.61042L173.889 8.31753ZM184.682 3.8886C182.925 2.13124 180.075 2.13124 178.318 3.8886L177.611 3.18149C179.759 1.03361 183.241 1.03361 185.389 3.18149L184.682 3.8886Z" fill="url(#paint0_linear_132_56)"/>
<circle cx="3" cy="5.99951" r="3" fill="#1E1E1E"/>
<defs>
<linearGradient id="paint0_linear_132_56" x1="55" y1="2.99951" x2="163.5" y2="2.99951" gradientUnits="userSpaceOnUse">
<stop/>
<stop offset="1"/>
</linearGradient>
</defs>
</svg>
