<svg width="181" height="11" viewBox="0 0 181 11" fill="none" xmlns="http://www.w3.org/2000/svg">
<path d="M0.795743 4.83453C0.573043 4.99783 0.260143 4.9497 0.0968432 4.72701C-0.0664568 4.50433 -0.0183567 4.19143 0.204343 4.02813L0.795743 4.83453ZM165.818 2.82042L161.389 7.24935L160.682 6.54224L165.111 2.11331L165.818 2.82042ZM153.611 7.24935L149.182 2.82042L149.889 2.11331L154.318 6.54224L153.611 7.24935ZM142.818 2.82042L138.389 7.24935L137.682 6.54224L142.111 2.11331L142.818 2.82042ZM130.611 7.24935L126.182 2.82042L126.889 2.11331L131.318 6.54224L130.611 7.24935ZM119.818 2.82042L115.389 7.24935L114.682 6.54224L119.111 2.11331L119.818 2.82042ZM107.611 7.24935L103.182 2.82042L103.889 2.11331L108.318 6.54224L107.611 7.24935ZM96.818 2.82042L92.389 7.24935L91.682 6.54224L96.111 2.11331L96.818 2.82042ZM84.6109 7.24935L80.182 2.82042L80.8891 2.11331L85.318 6.54224L84.6109 7.24935ZM73.818 2.82042L69.3891 7.24935L68.682 6.54224L73.1109 2.11331L73.818 2.82042ZM61.6109 7.24935L57.182 2.82042L57.8891 2.11331L62.318 6.54224L61.6109 7.24935ZM50.818 2.82042L46.3891 7.24935L45.682 6.54224L50.1109 2.11331L50.818 2.82042ZM38.6109 7.24935L34.182 2.82042L34.8891 2.11331L39.318 6.54224L38.6109 7.24935ZM27.818 2.82042L23.3891 7.24935L22.682 6.54224L27.1109 2.11331L27.818 2.82042ZM15.6109 7.24935L10.6796 2.31809L11.3867 1.61098L16.318 6.54224L15.6109 7.24935ZM4.83654 1.87124L0.795743 4.83453L0.204343 4.02813L4.24524 1.06484L4.83654 1.87124ZM10.6796 2.31809C9.10914 0.747548 6.62764 0.557778 4.83654 1.87124L4.24524 1.06484C6.43434 -0.540504 9.46724 -0.308563 11.3867 1.61098L10.6796 2.31809ZM23.3891 7.24935C21.2412 9.39722 17.7588 9.39722 15.6109 7.24935L16.318 6.54224C18.0754 8.2996 20.9246 8.2996 22.682 6.54224L23.3891 7.24935ZM34.182 2.82042C32.4246 1.06306 29.5754 1.06306 27.818 2.82042L27.1109 2.11331C29.2588 -0.0345726 32.7412 -0.0345726 34.8891 2.11331L34.182 2.82042ZM46.3891 7.24935C44.2412 9.39722 40.7588 9.39722 38.6109 7.24935L39.318 6.54224C41.0754 8.2996 43.9246 8.2996 45.682 6.54224L46.3891 7.24935ZM57.182 2.82042C55.4246 1.06306 52.5754 1.06306 50.818 2.82042L50.1109 2.11331C52.2588 -0.0345726 55.7412 -0.0345726 57.8891 2.11331L57.182 2.82042ZM69.3891 7.24935C67.2412 9.39722 63.7588 9.39722 61.6109 7.24935L62.318 6.54224C64.0754 8.2996 66.9246 8.2996 68.682 6.54224L69.3891 7.24935ZM80.182 2.82042C78.4246 1.06306 75.5754 1.06306 73.818 2.82042L73.1109 2.11331C75.2588 -0.0345726 78.7412 -0.0345726 80.8891 2.11331L80.182 2.82042ZM92.389 7.24935C90.241 9.39722 86.7588 9.39722 84.6109 7.24935L85.318 6.54224C87.0754 8.2996 89.925 8.2996 91.682 6.54224L92.389 7.24935ZM103.182 2.82042C101.425 1.06306 98.575 1.06306 96.818 2.82042L96.111 2.11331C98.259 -0.0345726 101.741 -0.0345726 103.889 2.11331L103.182 2.82042ZM115.389 7.24935C113.241 9.39722 109.759 9.39722 107.611 7.24935L108.318 6.54224C110.075 8.2996 112.925 8.2996 114.682 6.54224L115.389 7.24935ZM126.182 2.82042C124.425 1.06306 121.575 1.06306 119.818 2.82042L119.111 2.11331C121.259 -0.0345726 124.741 -0.0345726 126.889 2.11331L126.182 2.82042ZM138.389 7.24935C136.241 9.39722 132.759 9.39722 130.611 7.24935L131.318 6.54224C133.075 8.2996 135.925 8.2996 137.682 6.54224L138.389 7.24935ZM149.182 2.82042C147.425 1.06306 144.575 1.06306 142.818 2.82042L142.111 2.11331C144.259 -0.0345726 147.741 -0.0345726 149.889 2.11331L149.182 2.82042ZM161.389 7.24935C159.241 9.39722 155.759 9.39722 153.611 7.24935L154.318 6.54224C156.075 8.2996 158.925 8.2996 160.682 6.54224L161.389 7.24935ZM172.182 2.82042C170.425 1.06306 167.575 1.06306 165.818 2.82042L165.111 2.11331C167.259 -0.0345726 170.741 -0.0345726 172.889 2.11331L172.182 2.82042Z" fill="url(#paint0_linear_22_4934)"/>
<path d="M172.889 2.11331L172.182 2.82042L179.714 10.4292L180.614 9.838L172.889 2.11331Z" fill="url(#paint1_linear_22_4934)"/>
<defs>
<linearGradient id="paint0_linear_22_4934" x1="42.5" y1="1.93133" x2="151" y2="1.93133" gradientUnits="userSpaceOnUse">
<stop/>
<stop offset="1"/>
</linearGradient>
<linearGradient id="paint1_linear_22_4934" x1="42.5" y1="1.93133" x2="151" y2="1.93133" gradientUnits="userSpaceOnUse">
<stop/>
<stop offset="1"/>
</linearGradient>
</defs>
</svg>
