<svg width="3494" height="1960" viewBox="0 0 3494 1960" fill="none" xmlns="http://www.w3.org/2000/svg">
<rect width="3494" height="1960" rx="30" fill="#0C1B2F"/>
<g clip-path="url(#clip0_22_4984)">
<path opacity="0.4" d="M713.407 1628.75C821.6 1628.75 857.947 1697.34 862.581 1738.23L776.784 1757.52C773.703 1735.17 757.446 1706.62 714.183 1706.62C687.129 1706.62 665.486 1722.79 665.486 1744.41C665.486 1762.93 679.389 1774.49 700.256 1778.32L754.364 1789.88C829.34 1805.32 867.216 1850.79 867.216 1906.29C867.216 1967.97 819.27 2031.18 719.594 2031.18C605.19 2031.18 565.761 1957.16 561.151 1914L649.253 1894.73H649.277C651.582 1924.83 674.002 1952.56 718.866 1952.56C752.86 1952.56 769.117 1934.82 769.117 1914.8C769.117 1897.83 757.519 1883.94 728.159 1877.76L677.909 1866.2C604.486 1849.99 571.245 1806.04 571.245 1752.87C571.245 1685.03 631.541 1628.72 713.431 1628.72L713.407 1628.75ZM3306.22 1628.75C3423.68 1628.75 3494 1703.52 3494 1825.36C3494 1840 3492.45 1855.44 3492.45 1856.97H3220.38C3222.68 1907.09 3265.19 1943.3 3316.22 1943.3C3364.12 1943.3 3390.42 1919.4 3402.79 1885.45L3488.59 1910.87C3469.28 1976.43 3408.96 2031.16 3315.47 2031.16C3211.13 2031.16 3119.17 1956.39 3119.17 1828.39C3119.17 1707.33 3208.83 1628.7 3306.22 1628.7V1628.75ZM2001.19 1627.25C2104.75 1627.25 2163.51 1691.23 2179.72 1755.22L2087.76 1786.07C2078.49 1754.47 2054.52 1722.09 2003.52 1722.09C1952.52 1722.09 1906.9 1759.87 1906.9 1828.49L1906.95 1830.09C1907.65 1897.69 1952.18 1935.64 2004.32 1935.64C2056.87 1935.64 2083.18 1900.96 2091.64 1871.65L2182.05 1901.73C2165.04 1964.94 2105.55 2029.71 2004.27 2029.71C1892.22 2029.71 1804.09 1944.9 1804.09 1828.49C1804.09 1712.08 1890.64 1627.27 2001.16 1627.27L2001.19 1627.25ZM1527.58 1859.32C1527.58 1901.73 1549.23 1935.64 1597.12 1935.64C1645.02 1935.64 1669.02 1904.79 1669.02 1860.84V1640.33H1771.82V1951.03C1771.82 1980.33 1774.13 2006.53 1775.68 2019.65H1677.53C1676 2011.92 1674.45 1994.22 1674.45 1978.78L1673.46 1980.46C1652.2 2014.75 1608.91 2029.71 1569.34 2029.71C1477.36 2029.71 1424.8 1962.64 1424.8 1880.14V1640.33H1527.61V1859.29L1527.58 1859.32ZM2566.46 1859.32C2566.46 1901.73 2588.11 1935.64 2636.03 1935.64C2683.95 1935.64 2707.9 1904.79 2707.9 1860.84V1640.33H2810.73V1951.03C2810.73 1980.33 2813.03 2006.53 2814.56 2019.65H2716.42C2714.86 2011.92 2713.33 1994.22 2713.33 1978.78L2712.29 1980.46C2691.04 2014.75 2647.75 2029.71 2608.17 2029.71C2516.19 2029.71 2463.63 1962.64 2463.63 1880.14V1640.33H2566.46V1859.29V1859.32ZM1028.57 1640.31H1105.07V1731.3H1105.05L1028.55 1731.32V1890.15C1028.55 1923.3 1043.98 1934.09 1073.36 1934.09C1085.71 1934.09 1099.66 1932.56 1105.05 1931.01V2015.82C1095.81 2019.7 1077.24 2025.08 1047.11 2025.08C972.909 2025.08 926.541 1981.13 926.541 1907.89V1731.32H904.024C900.506 1704.49 887.282 1669.3 858.699 1640.33H877.067C917.272 1640.33 935.834 1614.11 935.834 1580.18V1527H1028.59V1640.31H1028.57ZM2339.77 1640.31H2416.27V1731.3H2416.22L2339.72 1731.32V1890.15C2339.72 1923.3 2355.15 1934.09 2384.53 1934.09C2396.88 1934.09 2410.84 1932.56 2416.22 1931.01V2015.82C2406.98 2019.7 2388.42 2025.08 2358.28 2025.08C2284.06 2025.08 2237.71 1981.13 2237.71 1907.89V1731.32H2222.62C2211.82 1699.93 2192.02 1667.67 2162.18 1641.69V1640.31H2188.21C2228.42 1640.31 2246.96 1614.08 2246.96 1580.15V1527H2339.72V1640.31H2339.77ZM102.806 2019.67H0V1546.22H102.806V2019.67ZM382.569 1630.35C476.858 1630.35 520.145 1697.41 520.145 1780.69V2019.67H417.339V1798.38C417.339 1755.97 396.472 1722.84 346.998 1722.84C302.182 1722.84 275.905 1757.52 275.905 1801.46V2019.67H173.123V1640.33H272.823V1687.38C295.995 1648.04 341.587 1630.35 382.569 1630.35ZM1360.91 1637.23C1369.43 1637.23 1377.17 1638.01 1384.86 1638.76V1742.08C1373.29 1739.78 1363.24 1739 1353.97 1739C1301.42 1739 1255.83 1764.43 1255.83 1846.16V2019.62H1153.02V1640.36H1252.72V1696.64C1275.89 1646.51 1328.45 1637.26 1360.91 1637.26V1637.23ZM3088.96 1637.23C3097.48 1637.23 3105.22 1638.01 3112.91 1638.76V1742.08C3101.34 1739.78 3091.32 1739 3082.02 1739C3029.47 1739 2983.88 1764.43 2983.88 1846.16V2019.62H2881.05V1640.36H2980.75V1696.64C3003.92 1646.51 3056.47 1637.26 3088.96 1637.26V1637.23ZM3307.7 1712.05C3254.37 1712.05 3225.01 1752.14 3222.71 1786.82H3392.72C3391.19 1749.04 3366.47 1712.05 3307.7 1712.05ZM1384.89 1742.11H1384.86C1384.86 1742.11 1384.86 1742.11 1384.89 1742.11Z" fill="#0E68B3"/>
</g>
<defs>
<clipPath id="clip0_22_4984">
<rect width="3494" height="429" fill="white" transform="translate(0 1527)"/>
</clipPath>
</defs>
</svg>
