<svg width="123" height="67" viewBox="0 0 123 67" fill="none" xmlns="http://www.w3.org/2000/svg">
<path d="M3.40438 66.2398C2.36172 66.2398 1.53372 65.9332 0.920383 65.3198C0.30705 64.6452 0.0003829 63.7252 0.0003829 62.5598V25.0238C0.0003829 19.9332 1.07372 15.5172 3.22038 11.7758C5.42838 7.97315 8.55638 5.05982 12.6044 3.03582C16.6524 1.01182 21.4057 -0.000179291 26.8644 -0.000179291C32.3231 -0.000179291 37.0457 1.01182 41.0324 3.03582C45.0804 5.05982 48.1777 7.97315 50.3244 11.7758C52.5324 15.5172 53.6364 19.9332 53.6364 25.0238V62.5598C53.6364 63.7252 53.3297 64.6452 52.7164 65.3198C52.1644 65.9332 51.3364 66.2398 50.2324 66.2398C49.1897 66.2398 48.3311 65.9332 47.6564 65.3198C47.0431 64.6452 46.7364 63.7252 46.7364 62.5598V24.7478C46.7364 18.7985 44.9884 14.1678 41.4924 10.8558C37.9964 7.54382 33.1204 5.88782 26.8644 5.88782C20.7311 5.88782 15.8551 7.57449 12.2364 10.9478C8.67905 14.3212 6.90038 18.9212 6.90038 24.7478V62.5598C6.90038 63.7252 6.59372 64.6452 5.98038 65.3198C5.36705 65.9332 4.50838 66.2398 3.40438 66.2398ZM79.7134 65.3198C75.972 65.3198 73.0587 64.3385 70.9734 62.3758C68.888 60.3518 67.8454 57.5918 67.8454 54.0958V11.9598C67.8454 8.52515 68.8574 5.82649 70.8814 3.86382C72.9667 1.90115 75.8494 0.91982 79.5294 0.91982H101.333C107.528 0.91982 112.343 2.45315 115.777 5.51982C119.212 8.58649 120.929 12.9105 120.929 18.4918C120.929 21.6812 120.101 24.4718 118.445 26.8638C116.789 29.1945 114.52 30.9732 111.637 32.1998V32.3838C114.888 33.5492 117.433 35.3892 119.273 37.9038C121.113 40.3572 122.033 43.2705 122.033 46.6438C122.033 52.4092 120.285 56.9785 116.789 60.3518C113.293 63.6638 108.509 65.3198 102.437 65.3198H79.7134ZM102.069 29.6238C105.688 29.6238 108.571 28.6118 110.717 26.5878C112.864 24.5638 113.937 21.8652 113.937 18.4918C113.937 14.6278 112.864 11.6838 110.717 9.65982C108.571 7.63582 105.443 6.62382 101.333 6.62382H79.6214C78.2107 6.62382 77.0454 7.14516 76.1254 8.18782C75.2054 9.16915 74.7454 10.4265 74.7454 11.9598V29.6238H102.069ZM102.069 59.5238C106.301 59.5238 109.521 58.4505 111.729 56.3038C113.937 54.0958 115.041 50.9065 115.041 46.7358C115.041 43.1172 113.876 40.2958 111.545 38.2718C109.215 36.2478 106.025 35.2358 101.977 35.2358H74.7454V54.2798C74.7454 55.8132 75.2054 57.0705 76.1254 58.0518C77.0454 59.0332 78.2107 59.5238 79.6214 59.5238H102.069Z" fill="black"/>
</svg>
