<svg width="256" height="256" viewBox="0 0 256 256" fill="none" xmlns="http://www.w3.org/2000/svg">
<rect width="256" height="256" fill="white"/>
<path d="M71.212 162.92C70.1693 162.92 69.3413 162.613 68.728 162C68.1147 161.325 67.808 160.405 67.808 159.24V121.704C67.808 116.613 68.8813 112.197 71.028 108.456C73.236 104.653 76.364 101.74 80.412 99.716C84.46 97.692 89.2133 96.68 94.672 96.68C100.131 96.68 104.853 97.692 108.84 99.716C112.888 101.74 115.985 104.653 118.132 108.456C120.34 112.197 121.444 116.613 121.444 121.704V159.24C121.444 160.405 121.137 161.325 120.524 162C119.972 162.613 119.144 162.92 118.04 162.92C116.997 162.92 116.139 162.613 115.464 162C114.851 161.325 114.544 160.405 114.544 159.24V121.428C114.544 115.479 112.796 110.848 109.3 107.536C105.804 104.224 100.928 102.568 94.672 102.568C88.5387 102.568 83.6627 104.255 80.044 107.628C76.4867 111.001 74.708 115.601 74.708 121.428V159.24C74.708 160.405 74.4013 161.325 73.788 162C73.1747 162.613 72.316 162.92 71.212 162.92ZM147.521 162C143.78 162 140.866 161.019 138.781 159.056C136.696 157.032 135.653 154.272 135.653 150.776V108.64C135.653 105.205 136.665 102.507 138.689 100.544C140.774 98.5813 143.657 97.6 147.337 97.6H169.141C175.336 97.6 180.15 99.1333 183.585 102.2C187.02 105.267 188.737 109.591 188.737 115.172C188.737 118.361 187.909 121.152 186.253 123.544C184.597 125.875 182.328 127.653 179.445 128.88V129.064C182.696 130.229 185.241 132.069 187.081 134.584C188.921 137.037 189.841 139.951 189.841 143.324C189.841 149.089 188.093 153.659 184.597 157.032C181.101 160.344 176.317 162 170.245 162H147.521ZM169.877 126.304C173.496 126.304 176.378 125.292 178.525 123.268C180.672 121.244 181.745 118.545 181.745 115.172C181.745 111.308 180.672 108.364 178.525 106.34C176.378 104.316 173.25 103.304 169.141 103.304H147.429C146.018 103.304 144.853 103.825 143.933 104.868C143.013 105.849 142.553 107.107 142.553 108.64V126.304H169.877ZM169.877 156.204C174.109 156.204 177.329 155.131 179.537 152.984C181.745 150.776 182.849 147.587 182.849 143.416C182.849 139.797 181.684 136.976 179.353 134.952C177.022 132.928 173.833 131.916 169.785 131.916H142.553V150.96C142.553 152.493 143.013 153.751 143.933 154.732C144.853 155.713 146.018 156.204 147.429 156.204H169.877Z" fill="black"/>
</svg>
